<?xml version="1.0" standalone="no"?>
<!DOCTYPE svg PUBLIC "-//W3C//DTD SVG 20010904//EN"
 "http://www.w3.org/TR/2001/REC-SVG-20010904/DTD/svg10.dtd">
<svg version="1.0" xmlns="http://www.w3.org/2000/svg"
 width="1280.000000pt" height="1241.000000pt" viewBox="0 0 1280.000000 1241.000000"
 preserveAspectRatio="xMidYMid meet">
<metadata>
Created by potrace 1.15, written by Peter Selinger 2001-2017
</metadata>
<g transform="translate(0.000000,1241.000000) scale(0.100000,-0.100000)"
fill="#000000" stroke="none">
<path d="M6063 12395 c-263 -40 -563 -149 -913 -332 -497 -260 -732 -430 -901
-652 -56 -73 -147 -253 -178 -348 -56 -177 -88 -410 -98 -711 -5 -160 -9 -202
-19 -198 -34 13 -272 67 -374 86 -391 69 -839 78 -1215 25 -361 -51 -701 -156
-965 -297 -471 -250 -763 -607 -849 -1036 -53 -260 -33 -530 64 -846 l36 -119
-35 -52 c-19 -29 -108 -126 -198 -216 -269 -270 -339 -400 -395 -734 -21 -125
-24 -478 -5 -610 66 -457 197 -806 401 -1065 66 -84 125 -137 214 -194 123
-79 245 -115 525 -156 114 -17 241 -37 282 -46 90 -19 210 -53 210 -60 0 -15
-138 -213 -300 -429 -293 -391 -380 -526 -469 -723 -163 -362 -184 -754 -60
-1127 135 -404 417 -721 812 -910 263 -127 528 -180 852 -174 159 4 166 3 170
-16 2 -11 11 -60 20 -110 34 -196 93 -379 175 -550 192 -397 509 -638 940
-710 404 -68 849 -31 1206 100 363 134 673 361 939 690 138 170 328 512 406
733 18 50 37 92 41 92 4 0 53 -51 109 -112 99 -111 187 -218 462 -565 338
-426 527 -598 825 -751 348 -179 707 -266 1097 -267 457 0 819 118 1076 352
189 172 300 327 556 773 209 364 226 392 237 395 6 1 44 10 83 19 429 95 825
507 1031 1072 145 396 173 840 77 1202 -45 169 -102 258 -313 485 -121 130
-181 227 -197 318 l-7 36 91 32 c104 36 164 64 463 219 241 126 235 121 351
297 273 417 455 985 474 1480 11 309 -40 582 -153 808 -95 190 -161 260 -357
380 -136 84 -209 150 -251 228 l-28 51 26 87 c52 174 60 220 60 371 1 133 -1
152 -27 226 -114 334 -483 796 -856 1075 -186 138 -341 197 -580 219 -120 11
-332 4 -581 -20 -52 -5 -175 -10 -273 -10 l-178 0 7 58 c4 31 7 129 7 217 0
493 -167 897 -522 1268 -196 205 -397 366 -747 601 l-192 128 -68 -27 c-123
-49 -202 -58 -449 -48 -121 4 -305 8 -410 8 -197 0 -253 -8 -347 -47 l-47 -20
-59 36 c-74 46 -189 91 -284 112 -101 22 -312 26 -425 9z m232 -246 c129 -13
248 -46 363 -99 l83 -39 282 49 c486 84 488 84 687 84 162 1 196 -2 275 -23
162 -41 338 -139 569 -314 277 -211 632 -637 779 -937 l42 -85 -1 -165 c0
-110 -8 -219 -23 -329 -12 -94 -22 -217 -22 -287 l0 -123 -97 -68 c-116 -82
-311 -272 -411 -403 -149 -192 -222 -311 -497 -797 -204 -361 -277 -482 -382
-628 -82 -114 -105 -144 -114 -144 -3 -1 -12 23 -19 52 -17 68 -15 198 7 361
10 72 18 194 18 271 1 126 -2 146 -24 200 -28 66 -39 72 -130 74 -134 2 -181
-38 -275 -232 -61 -127 -68 -137 -93 -137 -41 0 -105 46 -136 98 -16 26 -44
108 -67 196 -44 166 -71 223 -127 261 -46 31 -83 31 -149 0 -148 -68 -214
-227 -199 -480 3 -60 17 -204 31 -320 14 -115 25 -232 25 -258 0 -45 -1 -48
-22 -42 -49 15 -87 38 -144 86 -89 76 -126 93 -212 93 l-72 1 -15 45 c-8 25
-28 104 -45 175 -61 261 -109 373 -194 453 -51 48 -141 92 -188 92 -31 0 -115
-91 -146 -158 -24 -52 -26 -67 -26 -177 1 -137 14 -188 109 -445 95 -257 143
-406 166 -513 23 -108 37 -334 23 -360 -17 -30 -257 422 -483 913 -166 360
-419 867 -504 1010 -204 346 -402 602 -609 792 l-90 82 6 301 c12 504 45 733
136 924 39 82 45 88 108 128 37 23 182 121 322 218 320 221 477 320 657 411
254 128 456 187 699 203 11 0 70 -4 129 -10z m-2990 -2079 c293 -25 522 -101
750 -248 216 -139 459 -399 632 -677 175 -280 293 -525 551 -1145 77 -184 158
-375 181 -424 23 -49 40 -91 38 -93 -11 -10 -193 145 -377 322 -243 234 -350
323 -492 409 -81 49 -229 116 -257 116 -10 0 -39 -18 -64 -40 -25 -22 -51 -40
-57 -40 -19 0 -5 -77 30 -169 61 -158 181 -294 440 -501 256 -204 351 -307
400 -430 35 -89 32 -93 -54 -60 -95 37 -172 76 -299 152 -265 158 -415 224
-582 259 -85 17 -91 18 -125 1 -28 -14 -43 -33 -75 -98 -22 -45 -46 -89 -54
-98 -23 -27 12 -101 83 -172 46 -46 85 -73 162 -110 l101 -49 -1 -90 c-1 -114
15 -166 64 -215 30 -30 51 -41 101 -52 l63 -14 -62 -18 c-43 -12 -128 -20
-265 -27 -221 -10 -297 -23 -356 -62 -43 -28 -81 -96 -81 -143 1 -65 66 -132
247 -255 168 -115 212 -167 249 -296 3 -10 93 -13 410 -13 l407 0 -19 -21
c-45 -50 -145 -79 -272 -79 -42 0 -165 7 -274 17 -184 16 -201 16 -274 0 -124
-27 -137 -48 -159 -257 -8 -78 -20 -153 -27 -168 -15 -30 -6 -29 -400 -52
-102 -5 -338 -26 -525 -45 -828 -86 -1047 -100 -1383 -92 -827 20 -1193 256
-1329 857 -39 173 -46 258 -46 540 1 281 11 407 55 677 l19 118 58 49 c84 72
186 179 260 273 69 88 223 338 223 361 0 7 -13 44 -29 80 -47 109 -88 233
-113 343 -20 90 -23 130 -22 294 0 174 2 199 27 290 32 120 116 293 189 390
249 331 682 560 1208 639 400 60 867 87 1125 66z m7345 -179 c398 -92 693
-326 1116 -886 57 -75 62 -85 75 -165 9 -52 14 -155 14 -265 -1 -182 -18 -312
-61 -463 l-15 -52 37 -62 c51 -84 127 -157 291 -281 157 -118 243 -200 298
-283 131 -198 204 -548 176 -847 -30 -326 -106 -587 -266 -912 -90 -184 -186
-344 -287 -479 -59 -79 -68 -87 -141 -121 -152 -70 -358 -126 -577 -157 -123
-17 -558 -17 -705 1 -574 67 -985 171 -1980 501 -313 104 -588 192 -610 195
-29 5 -57 0 -100 -16 -73 -27 -125 -39 -125 -29 0 12 75 77 111 96 128 66 254
83 694 94 380 10 485 18 603 50 140 38 241 109 288 203 l25 48 -22 30 c-57 80
-153 119 -293 119 -93 0 -173 -14 -476 -85 -164 -38 -308 -48 -363 -26 -27 10
-27 12 -13 40 25 47 95 100 161 120 33 11 121 31 195 46 249 49 291 73 340
195 18 44 75 151 128 238 125 207 167 280 187 327 l16 40 -32 27 c-71 60 -211
79 -320 43 -29 -10 -144 -62 -254 -116 -198 -98 -297 -133 -356 -127 l-30 3
57 70 c32 39 125 142 207 230 82 88 171 189 198 225 65 85 163 280 163 323 0
81 -87 138 -220 145 -135 7 -175 -20 -263 -181 -73 -133 -72 -132 -193 -133
-204 -1 -293 -65 -530 -383 -72 -96 -151 -196 -176 -223 -43 -46 -132 -118
-146 -118 -3 0 -6 12 -6 28 0 49 46 125 136 227 145 163 273 352 602 885 391
634 540 856 740 1105 185 228 436 470 632 607 64 44 67 45 160 51 68 4 131 16
220 43 302 89 280 85 450 80 103 -3 183 -12 240 -25z m-3742 -1173 c34 -37 80
-147 98 -237 31 -159 2 -298 -75 -348 -49 -33 -61 -30 -61 15 0 20 -9 96 -21
167 -22 140 -26 304 -9 351 15 42 32 74 40 74 4 0 16 -10 28 -22z m-987 -211
c90 -138 139 -359 139 -632 l0 -90 50 -75 c215 -320 238 -517 72 -628 -30 -20
-37 -9 -46 66 -14 118 -70 337 -177 692 -118 393 -169 621 -169 753 l0 61 46
-44 c26 -25 64 -71 85 -103z m1734 -145 c45 -210 -29 -520 -214 -897 -53 -108
-59 -116 -60 -84 -2 59 27 206 104 544 69 299 93 418 111 540 l7 50 19 -43
c11 -24 26 -73 33 -110z m-3064 -343 c84 -32 205 -108 293 -184 71 -61 178
-186 321 -370 59 -77 132 -168 162 -202 l55 -63 -44 0 c-67 0 -133 46 -301
208 -84 81 -220 198 -302 261 -213 163 -265 209 -265 238 0 13 -9 41 -20 63
-11 22 -20 51 -20 65 0 30 -2 31 121 -16z m2330 -212 c70 -46 94 -143 69 -278
-12 -64 -59 -221 -70 -232 -12 -14 -67 62 -79 109 -14 53 -14 213 -1 285 14
78 32 139 40 139 4 0 22 -10 41 -23z m1851 -92 c10 -22 4 -37 -52 -134 -176
-308 -365 -473 -639 -556 -23 -7 -22 -5 10 41 19 27 140 154 270 284 179 178
248 254 284 313 45 71 51 77 82 77 26 0 36 -6 45 -25z m-4372 -445 c93 -26
237 -95 310 -149 110 -82 267 -258 247 -277 -3 -3 -43 2 -89 11 -237 48 -478
148 -601 250 -60 49 -157 159 -157 177 0 24 186 16 290 -12z m2739 -33 c6 -18
17 -77 24 -132 8 -55 17 -108 22 -119 8 -17 3 -18 -66 -15 -99 6 -153 32 -157
79 -6 55 6 79 73 150 36 38 65 74 65 81 0 21 28 -11 39 -44z m2001 -182 c0 -3
-19 -32 -42 -63 -222 -304 -497 -452 -868 -468 l-125 -5 65 61 c160 150 387
270 785 416 179 65 185 67 185 59z m-2119 -335 c4 -14 7 -54 8 -90 2 -114 -67
-223 -169 -269 -65 -29 -79 -27 -97 17 -36 86 -10 227 55 295 67 71 189 99
203 47z m879 -100 c0 -89 -135 -192 -301 -229 l-41 -9 5 40 c9 64 34 88 155
151 70 36 120 69 134 88 21 28 24 29 35 13 7 -10 13 -34 13 -54z m-1389 -1
c16 -11 42 -44 57 -72 25 -49 27 -59 26 -177 -1 -156 -15 -203 -62 -208 -17
-2 -47 4 -67 13 -91 44 -108 174 -53 429 10 47 11 48 40 42 16 -3 43 -15 59
-27z m-458 -32 c61 -26 137 -132 137 -192 0 -34 -70 -59 -149 -53 -45 3 -68
11 -96 32 -43 33 -74 95 -75 149 0 31 5 40 33 57 37 23 103 26 150 7z m-1757
-185 c112 -30 343 -106 344 -114 0 -17 -94 -60 -161 -74 -91 -19 -194 -9 -386
37 -163 39 -163 39 -163 49 0 20 67 84 105 101 53 24 170 25 261 1z m2854
-248 c0 -54 -23 -98 -65 -124 -26 -16 -96 -33 -222 -54 l-33 -5 0 45 c0 57 30
114 73 140 40 23 125 42 195 43 l52 1 0 -46z m-1036 -18 c41 -17 76 -61 76
-96 0 -22 -6 -29 -37 -38 -110 -32 -175 -23 -240 33 l-38 33 20 22 c47 53 150
75 219 46z m-1576 -82 c39 -27 28 -95 -19 -119 -77 -40 -223 20 -231 95 -3 24
0 25 62 31 125 11 165 9 188 -7z m4679 1 c59 -25 65 -33 48 -66 -8 -15 -36
-40 -61 -55 -85 -50 -130 -55 -471 -52 l-313 3 0 28 c0 15 10 37 21 48 21 21
28 21 134 15 107 -6 117 -5 206 23 52 17 126 39 164 50 87 24 220 27 272 6z
m-2893 -264 c3 -5 -4 -37 -15 -72 -63 -193 -157 -297 -298 -328 l-44 -9 5 62
c9 105 74 217 173 294 65 50 163 79 179 53z m-456 -46 c2 -2 1 -16 -2 -31 -8
-30 -112 -144 -132 -144 -19 0 -44 41 -44 71 0 33 43 87 85 105 26 12 81 12
93 -1z m885 -12 c30 -35 66 -119 91 -220 35 -135 35 -132 -16 -126 -64 8 -142
46 -171 85 -14 18 -33 60 -42 93 -15 60 -20 166 -8 178 3 4 34 7 68 7 46 0 66
-4 78 -17z m-1833 -175 c0 -15 -67 -72 -104 -88 -80 -34 -150 -45 -276 -45
-122 1 -272 24 -285 45 -17 27 174 78 334 89 135 10 331 9 331 -1z m1508 -170
c83 -87 80 -217 -7 -291 -36 -30 -48 -32 -71 -14 -65 51 -66 136 -3 280 14 31
31 57 37 57 7 0 26 -15 44 -32z m-1293 -24 c36 -37 -34 -129 -168 -222 -88
-61 -179 -95 -427 -156 -277 -70 -334 -88 -433 -139 -81 -41 -157 -114 -176
-168 -19 -54 61 -178 143 -222 34 -18 56 -22 126 -21 115 1 187 27 490 174
135 65 262 123 283 129 45 12 45 8 -6 -78 -42 -70 -117 -154 -252 -281 -119
-113 -222 -223 -237 -256 -7 -15 -3 -35 16 -78 57 -129 131 -182 239 -174 218
18 521 324 968 976 l84 124 3 -47 c5 -67 -31 -193 -87 -311 -67 -139 -231
-413 -331 -554 -175 -243 -207 -349 -144 -472 26 -50 93 -108 125 -108 69 0
155 62 253 184 103 128 134 151 206 151 46 -1 66 -6 108 -34 34 -22 58 -30 71
-26 32 10 76 68 126 165 48 92 79 124 135 140 37 11 37 8 5 -91 -59 -188 -91
-448 -82 -674 4 -77 20 -279 38 -450 27 -277 30 -334 26 -535 -5 -240 -16
-320 -67 -516 -93 -351 -263 -654 -514 -913 -321 -330 -716 -532 -1191 -607
-154 -25 -445 -25 -579 0 -534 97 -859 460 -1093 1220 l-49 158 -215 2 c-189
2 -229 5 -340 29 -456 96 -801 343 -988 707 -95 184 -139 359 -148 591 -18
439 143 865 492 1304 90 114 387 414 518 524 l87 73 198 9 c733 32 1377 129
2146 324 160 41 359 94 441 119 170 51 178 52 200 30z m4357 -399 c755 -190
1088 -263 1497 -329 84 -14 154 -26 155 -28 1 -2 28 -41 59 -88 30 -47 117
-161 191 -254 75 -93 160 -206 190 -250 151 -228 206 -416 206 -709 0 -483
-206 -960 -566 -1309 -113 -109 -112 -109 -258 -133 -185 -32 -317 -69 -416
-118 -84 -42 -85 -42 -93 -87 -65 -385 -200 -648 -462 -898 -135 -129 -260
-217 -430 -302 -280 -140 -543 -202 -862 -201 -335 1 -638 79 -908 233 -190
109 -302 202 -489 403 -332 358 -576 697 -667 928 -11 28 -54 184 -95 346 -41
162 -90 343 -109 403 -76 233 -106 418 -107 638 0 273 56 432 180 511 77 49
98 42 249 -82 177 -145 289 -160 407 -54 28 26 28 28 24 108 -4 66 -15 111
-57 232 -77 219 -91 272 -91 345 0 99 6 113 44 106 121 -24 263 -147 406 -351
101 -145 212 -259 296 -303 68 -35 167 -62 232 -62 94 0 139 74 128 207 -19
227 -18 256 2 289 11 17 42 45 68 63 60 39 84 37 187 -19 88 -49 132 -52 178
-13 39 33 59 79 59 136 0 34 -14 73 -58 163 -32 66 -62 131 -65 145 -7 26 -6
26 41 22 26 -2 87 -11 135 -20 101 -18 197 -14 246 12 l34 17 -5 127 c-4 110
-8 134 -31 184 -20 45 -34 60 -64 74 -21 10 -40 19 -42 20 -2 1 2 9 8 17 11
13 31 20 68 25 6 0 269 -64 585 -144z m-3879 33 c10 -35 -27 -95 -116 -193
-45 -50 -92 -104 -104 -120 l-22 -30 -15 37 c-9 21 -16 45 -16 55 1 36 39 99
91 149 48 46 153 122 170 123 4 1 9 -9 12 -21z m-753 -94 c-128 -130 -283
-229 -440 -283 -72 -25 -195 -51 -241 -51 l-29 0 26 53 c43 87 101 154 175
206 120 84 307 138 489 140 l84 1 -64 -66z m2174 15 c15 -18 38 -53 50 -78 27
-52 67 -181 58 -181 -18 0 -73 42 -97 74 -28 36 -57 118 -70 194 -7 42 -6 43
13 33 11 -6 32 -25 46 -42z m1651 20 c57 -28 83 -60 92 -112 5 -36 5 -38 -18
-33 -13 3 -59 12 -101 21 -86 18 -131 44 -165 94 -40 59 -34 64 60 59 62 -3
96 -10 132 -29z m-1961 -102 c71 -120 127 -308 170 -567 35 -207 75 -560 64
-566 -14 -9 -52 7 -81 35 -97 90 -141 316 -167 871 -6 124 -13 235 -15 248 -8
33 1 27 29 -21z m-247 -89 c32 -34 62 -108 79 -196 24 -127 18 -572 -8 -572
-15 0 -64 55 -81 93 -48 101 -69 337 -52 601 8 126 10 129 62 74z m1150 -13
c59 -30 149 -116 182 -175 l22 -40 -46 20 c-90 38 -183 100 -229 151 -25 28
-43 55 -40 60 10 17 60 9 111 -16z m-102 -282 c96 -83 181 -186 308 -373 134
-197 130 -190 109 -190 -31 0 -124 31 -183 60 -118 60 -216 163 -279 294 -33
69 -83 219 -94 279 l-7 39 32 -19 c17 -10 69 -50 114 -90z m-2354 -43 c-42
-137 -156 -271 -280 -328 -61 -28 -170 -40 -214 -23 l-27 11 51 72 c110 156
252 276 404 343 77 33 80 34 83 14 2 -11 -6 -51 -17 -89z m925 64 c36 -85 -6
-258 -105 -441 -35 -64 -96 -143 -111 -143 -5 0 -14 19 -21 43 -19 68 1 132
84 281 83 149 102 192 112 259 8 52 20 52 41 1z m-367 -184 c26 -47 31 -143
11 -206 -46 -143 -173 -298 -291 -354 l-64 -30 -3 25 c-11 85 55 232 179 400
44 61 92 131 105 158 13 26 28 47 32 47 5 0 18 -18 31 -40z"/>
</g>
</svg>
